<svg width="49" height="49" viewBox="0 0 49 49" fill="none" xmlns="http://www.w3.org/2000/svg">
<g clip-path="url(#clip0_205_16)">
<path d="M9.2782 19.7059C9.2782 14.853 11.0455 10.4412 13.9909 6.91177C9.28992 8.72147 5.37203 12.118 2.91752 16.5115C0.463017 20.9051 -0.373105 26.0182 0.554332 30.9632C1.48177 35.9082 4.1142 40.3727 7.99455 43.5815C11.8749 46.7904 16.7581 48.541 21.7964 48.5294C31.0746 48.5294 39.0273 42.6471 42.12 34.4118C38.5855 37.5 34.02 39.2647 29.16 39.2647C18.1146 39.4118 9.2782 30.5882 9.2782 19.7059Z" fill="url(#paint0_linear_205_16)"/>
<path d="M29.0127 0C22.9745 0 17.6727 2.64706 13.9909 6.91176C17.258 5.6506 20.7828 5.19987 24.2628 5.59825C27.7428 5.99663 31.074 7.23224 33.9705 9.19901C36.867 11.1658 39.2424 13.805 40.8927 16.8901C42.543 19.9753 43.419 23.4142 43.4455 26.9118C43.4455 29.5588 43.0036 32.0588 42.12 34.2647C46.2436 30.7353 48.8945 25.4412 48.8945 19.5588C48.7473 8.82353 39.9109 0 29.0127 0Z" fill="url(#paint1_linear_205_16)"/>
</g>
<defs>
<linearGradient id="paint0_linear_205_16" x1="26.6122" y1="17.1765" x2="10.45" y2="49.901" gradientUnits="userSpaceOnUse">
<stop stop-color="#02BCCC"/>
<stop offset="1" stop-color="#60F23F"/>
</linearGradient>
<linearGradient id="paint1_linear_205_16" x1="36.8035" y1="4.60294" x2="24.6377" y2="29.1905" gradientUnits="userSpaceOnUse">
<stop stop-color="#02BCCC"/>
<stop offset="1" stop-color="#60F23F"/>
</linearGradient>
<clipPath id="clip0_205_16">
<rect width="49" height="49" fill="white"/>
</clipPath>
</defs>
</svg>
